<?xml version="1.0" encoding="UTF-8"?>
<!DOCTYPE svg PUBLIC "-//W3C//DTD SVG 1.1//EN" "http://www.w3.org/Graphics/SVG/1.1/DTD/svg11.dtd">
<!-- Creator: Corel DESIGNER X5 -->
<svg xmlns="http://www.w3.org/2000/svg" xml:space="preserve" width="92.6277mm" height="29.483mm" shape-rendering="geometricPrecision" text-rendering="geometricPrecision" image-rendering="optimizeQuality" fill-rule="evenodd" clip-rule="evenodd"
viewBox="0 0 4704 1497"
 xmlns:xlink="http://www.w3.org/1999/xlink">
 <g id="Pfeil_x0020_1">
  <metadata id="CorelCorpID_0Corel-Layer"/>
  <path fill="#B62C2C" d="M1135 1443l-965 1c-93,0 -170,-77 -170,-171l0 -1050c0,-94 77,-170 170,-170l1602 0 0 -53 118 86 -118 85 0 -55 -1582 0c-70,0 -127,57 -127,127l0 1010c0,70 57,127 127,127l945 0 1 -54 117 86 -118 85 0 -54z"/>
 </g>
 <g id="m">
  <metadata id="CorelCorpID_1Corel-Layer"/>
  <path fill="#B62C2C" d="M149 1271l300 0 0 -339 89 0 0 339 304 0 0 -339 91 0 0 339 321 0 -1 -234c-1,-108 -110,-232 -240,-231l-864 0 0 465z"/>
 </g>
 <g id="Kiosk">
  <metadata id="CorelCorpID_2Corel-Layer"/>
  <path fill="#939494" fill-rule="nonzero" d="M2149 1271l-266 -541 252 -440 -221 0 -226 449 244 546 217 -14zm-477 0l0 -981 -196 0 0 981 196 0z"/>
  <path id="1" fill="#939494" fill-rule="nonzero" d="M2483 311c-1,-21 -6,-41 -16,-59 -10,-18 -24,-32 -41,-43 -18,-11 -38,-17 -60,-17 -22,0 -42,6 -59,17 -18,11 -31,25 -41,43 -11,18 -16,38 -16,59 0,22 5,42 16,60 10,18 23,32 41,43 17,11 37,16 59,16 22,0 42,-5 60,-16 17,-11 31,-25 41,-43 10,-18 15,-38 16,-60zm-19 960l0 -742 -196 0 0 742 196 0z"/>
  <path id="12" fill="#939494" fill-rule="nonzero" d="M3311 900c0,-66 -7,-122 -21,-168 -13,-46 -31,-83 -54,-112 -23,-29 -49,-51 -78,-66 -29,-15 -60,-26 -92,-31 -32,-6 -63,-9 -94,-8 -32,-1 -63,2 -95,9 -32,6 -63,17 -92,33 -29,16 -55,38 -78,67 -23,29 -41,66 -54,112 -13,45 -20,100 -20,164 0,66 7,122 20,168 14,45 33,82 56,111 23,29 49,51 79,67 29,15 59,25 91,31 32,6 62,9 93,8 30,1 61,-2 92,-7 32,-6 62,-16 91,-31 30,-15 56,-37 79,-66 24,-29 42,-66 56,-112 14,-46 21,-102 21,-169zm-196 0c0,44 -3,80 -9,110 -6,29 -14,53 -23,72 -10,18 -21,31 -34,40 -12,10 -25,16 -38,19 -14,3 -26,5 -39,4 -13,1 -26,-1 -39,-4 -14,-3 -26,-10 -39,-19 -12,-9 -23,-23 -33,-41 -10,-18 -18,-42 -23,-71 -6,-30 -9,-67 -9,-110 0,-44 2,-81 7,-111 5,-29 12,-53 21,-71 9,-19 19,-32 31,-42 12,-9 25,-15 39,-18 14,-4 29,-5 45,-5 15,0 30,1 44,4 14,3 28,8 39,17 12,9 23,22 32,40 9,18 15,42 20,72 5,30 8,68 8,114z"/>
  <path id="123" fill="#939494" fill-rule="nonzero" d="M3919 1046c0,-30 -4,-56 -12,-79 -8,-23 -19,-42 -33,-58 -14,-17 -29,-30 -47,-42 -17,-11 -36,-20 -55,-27l-70 -27c-19,-7 -36,-13 -52,-20 -15,-7 -28,-15 -37,-25 -10,-9 -14,-21 -15,-36 0,-22 9,-38 26,-49 17,-10 45,-14 82,-14 12,0 26,1 42,3 16,2 32,5 48,9 16,3 31,6 45,9 14,4 26,7 34,9 9,2 13,3 13,3l0 -152c0,-1 -5,-2 -14,-6 -10,-3 -24,-7 -41,-12 -18,-5 -38,-9 -61,-12 -23,-3 -48,-5 -74,-5 -37,-1 -73,3 -107,10 -35,7 -66,19 -93,36 -27,18 -48,41 -64,71 -16,30 -24,68 -25,114 0,33 5,62 15,86 10,24 23,44 39,60 16,17 33,30 53,41 19,11 38,19 57,26l59 21c18,6 34,13 49,20 14,7 26,15 34,25 9,10 13,22 14,38 -1,17 -5,31 -15,41 -9,10 -22,16 -38,20 -17,4 -35,6 -57,6 -12,0 -26,-1 -43,-4 -16,-3 -33,-6 -51,-9 -18,-4 -34,-8 -50,-12 -15,-3 -28,-6 -37,-9 -10,-3 -15,-4 -15,-4l0 158c1,1 7,3 19,6 12,3 29,7 49,12 20,4 42,9 66,12 25,3 48,5 72,5 28,1 56,-1 84,-4 27,-3 54,-10 78,-19 25,-9 47,-23 66,-40 19,-18 35,-41 46,-70 10,-29 16,-64 16,-106z"/>
  <path id="1234" fill="#939494" fill-rule="nonzero" d="M4704 1271l-223 -428 195 -314 -225 0 -166 322 199 434 220 -14zm-434 0l0 -1009 -196 0 0 1009 196 0z"/>
 </g>
</svg>
